<mxfile host="Electron" modified="2024-01-05T09:03:58.810Z" agent="Mozilla/5.0 (Windows NT 10.0; Win64; x64) AppleWebKit/537.36 (KHTML, like Gecko) draw.io/21.6.8 Chrome/114.0.5735.289 Electron/25.5.0 Safari/537.36" etag="zZoN1pswxwkbs48dPLtz" version="21.6.8" type="device">
  <diagram name="Page-1" id="PfNmDjwrBRYXgAyKruBD">
    <mxGraphModel dx="867" dy="1387" grid="1" gridSize="10" guides="1" tooltips="1" connect="1" arrows="1" fold="1" page="1" pageScale="1" pageWidth="1169" pageHeight="827" math="0" shadow="0">
      <root>
        <mxCell id="0" />
        <mxCell id="1" parent="0" />
        <mxCell id="fdN96rF7Gyq_IgbBHkpE-1" value="Transaction" style="rounded=0;whiteSpace=wrap;html=1;" parent="1" vertex="1">
          <mxGeometry x="600" y="-525" width="100" height="50" as="geometry" />
        </mxCell>
        <mxCell id="fdN96rF7Gyq_IgbBHkpE-2" value="Account" style="rounded=0;whiteSpace=wrap;html=1;" parent="1" vertex="1">
          <mxGeometry x="330" y="-240" width="100" height="50" as="geometry" />
        </mxCell>
        <mxCell id="fdN96rF7Gyq_IgbBHkpE-3" value="User" style="rounded=0;whiteSpace=wrap;html=1;" parent="1" vertex="1">
          <mxGeometry y="-525" width="100" height="50" as="geometry" />
        </mxCell>
        <mxCell id="fdN96rF7Gyq_IgbBHkpE-5" value="" style="endArrow=none;html=1;rounded=0;exitX=0;exitY=0.5;exitDx=0;exitDy=0;entryX=1;entryY=0.5;entryDx=0;entryDy=0;" parent="1" source="fdN96rF7Gyq_IgbBHkpE-1" target="fdN96rF7Gyq_IgbBHkpE-13" edge="1">
          <mxGeometry width="50" height="50" relative="1" as="geometry">
            <mxPoint x="490" y="-190" as="sourcePoint" />
            <mxPoint x="540" y="-240" as="targetPoint" />
          </mxGeometry>
        </mxCell>
        <mxCell id="fdN96rF7Gyq_IgbBHkpE-8" value="1: Request Login" style="text;html=1;align=center;verticalAlign=middle;resizable=0;points=[];autosize=1;strokeColor=none;fillColor=none;rotation=0;" parent="1" vertex="1">
          <mxGeometry x="160" y="-545" width="110" height="30" as="geometry" />
        </mxCell>
        <mxCell id="fdN96rF7Gyq_IgbBHkpE-9" value="2. Login Approved" style="text;html=1;align=center;verticalAlign=middle;resizable=0;points=[];autosize=1;strokeColor=none;fillColor=none;" parent="1" vertex="1">
          <mxGeometry x="165" y="-470" width="120" height="30" as="geometry" />
        </mxCell>
        <mxCell id="fdN96rF7Gyq_IgbBHkpE-10" value="3: Request account info" style="text;html=1;align=center;verticalAlign=middle;resizable=0;points=[];autosize=1;strokeColor=none;fillColor=none;" parent="1" vertex="1">
          <mxGeometry x="150" y="-565" width="150" height="30" as="geometry" />
        </mxCell>
        <mxCell id="fdN96rF7Gyq_IgbBHkpE-11" value="4: Provide Account Info" style="text;html=1;align=center;verticalAlign=middle;resizable=0;points=[];autosize=1;strokeColor=none;fillColor=none;" parent="1" vertex="1">
          <mxGeometry x="160" y="-490" width="150" height="30" as="geometry" />
        </mxCell>
        <mxCell id="fdN96rF7Gyq_IgbBHkpE-13" value="Bank /&amp;nbsp; Server" style="rounded=0;whiteSpace=wrap;html=1;" parent="1" vertex="1">
          <mxGeometry x="330" y="-520" width="100" height="40" as="geometry" />
        </mxCell>
        <mxCell id="fdN96rF7Gyq_IgbBHkpE-14" value="" style="endArrow=none;html=1;rounded=0;entryX=0;entryY=0.5;entryDx=0;entryDy=0;exitX=1;exitY=0.5;exitDx=0;exitDy=0;" parent="1" source="fdN96rF7Gyq_IgbBHkpE-3" target="fdN96rF7Gyq_IgbBHkpE-13" edge="1">
          <mxGeometry width="50" height="50" relative="1" as="geometry">
            <mxPoint x="490" y="-410" as="sourcePoint" />
            <mxPoint x="540" y="-460" as="targetPoint" />
          </mxGeometry>
        </mxCell>
        <mxCell id="fdN96rF7Gyq_IgbBHkpE-15" value="" style="endArrow=none;html=1;rounded=0;entryX=0.5;entryY=1;entryDx=0;entryDy=0;exitX=0.5;exitY=0;exitDx=0;exitDy=0;" parent="1" source="fdN96rF7Gyq_IgbBHkpE-2" target="fdN96rF7Gyq_IgbBHkpE-13" edge="1">
          <mxGeometry width="50" height="50" relative="1" as="geometry">
            <mxPoint x="490" y="-410" as="sourcePoint" />
            <mxPoint x="540" y="-460" as="targetPoint" />
          </mxGeometry>
        </mxCell>
        <mxCell id="fdN96rF7Gyq_IgbBHkpE-16" value="5: send money" style="text;html=1;align=center;verticalAlign=middle;resizable=0;points=[];autosize=1;strokeColor=none;fillColor=none;" parent="1" vertex="1">
          <mxGeometry x="170" y="-590" width="100" height="30" as="geometry" />
        </mxCell>
        <mxCell id="fdN96rF7Gyq_IgbBHkpE-17" value="10: Apply for loan" style="text;html=1;align=center;verticalAlign=middle;resizable=0;points=[];autosize=1;strokeColor=none;fillColor=none;" parent="1" vertex="1">
          <mxGeometry x="165" y="-620" width="120" height="30" as="geometry" />
        </mxCell>
        <mxCell id="fdN96rF7Gyq_IgbBHkpE-18" value="6. Check amount" style="text;html=1;align=center;verticalAlign=middle;resizable=0;points=[];autosize=1;strokeColor=none;fillColor=none;" parent="1" vertex="1">
          <mxGeometry x="405" y="-380" width="110" height="30" as="geometry" />
        </mxCell>
        <mxCell id="fdN96rF7Gyq_IgbBHkpE-19" value="8 : Receive money" style="text;html=1;align=center;verticalAlign=middle;resizable=0;points=[];autosize=1;strokeColor=none;fillColor=none;" parent="1" vertex="1">
          <mxGeometry x="465" y="-480" width="120" height="30" as="geometry" />
        </mxCell>
        <mxCell id="fdN96rF7Gyq_IgbBHkpE-22" value="7. Send money" style="text;html=1;strokeColor=none;fillColor=none;align=center;verticalAlign=middle;whiteSpace=wrap;rounded=0;" parent="1" vertex="1">
          <mxGeometry x="485" y="-545" width="100" height="30" as="geometry" />
        </mxCell>
        <mxCell id="fdN96rF7Gyq_IgbBHkpE-24" value="9. Save money" style="text;html=1;align=center;verticalAlign=middle;resizable=0;points=[];autosize=1;strokeColor=none;fillColor=none;" parent="1" vertex="1">
          <mxGeometry x="405" y="-350" width="100" height="30" as="geometry" />
        </mxCell>
        <mxCell id="fdN96rF7Gyq_IgbBHkpE-25" value="11. Process for loan" style="text;html=1;align=center;verticalAlign=middle;resizable=0;points=[];autosize=1;strokeColor=none;fillColor=none;" parent="1" vertex="1">
          <mxGeometry x="405" y="-320" width="130" height="30" as="geometry" />
        </mxCell>
        <mxCell id="fdN96rF7Gyq_IgbBHkpE-26" value="12. Loan approved" style="text;html=1;align=center;verticalAlign=middle;resizable=0;points=[];autosize=1;strokeColor=none;fillColor=none;" parent="1" vertex="1">
          <mxGeometry x="225" y="-352" width="120" height="30" as="geometry" />
        </mxCell>
        <mxCell id="fdN96rF7Gyq_IgbBHkpE-27" value="13: Provide loan" style="text;html=1;align=center;verticalAlign=middle;resizable=0;points=[];autosize=1;strokeColor=none;fillColor=none;" parent="1" vertex="1">
          <mxGeometry x="160" y="-450" width="110" height="30" as="geometry" />
        </mxCell>
        <mxCell id="fdN96rF7Gyq_IgbBHkpE-28" value="14 Account Information" style="text;html=1;align=center;verticalAlign=middle;resizable=0;points=[];autosize=1;strokeColor=none;fillColor=none;" parent="1" vertex="1">
          <mxGeometry x="210" y="-322" width="150" height="30" as="geometry" />
        </mxCell>
        <mxCell id="fdN96rF7Gyq_IgbBHkpE-29" value="15. Release Money" style="text;html=1;align=center;verticalAlign=middle;resizable=0;points=[];autosize=1;strokeColor=none;fillColor=none;" parent="1" vertex="1">
          <mxGeometry x="220" y="-292" width="130" height="30" as="geometry" />
        </mxCell>
        <mxCell id="fdN96rF7Gyq_IgbBHkpE-30" value="16 : Cash Deposite" style="text;html=1;align=center;verticalAlign=middle;resizable=0;points=[];autosize=1;strokeColor=none;fillColor=none;" parent="1" vertex="1">
          <mxGeometry x="160" y="-650" width="130" height="30" as="geometry" />
        </mxCell>
        <mxCell id="fdN96rF7Gyq_IgbBHkpE-31" value="17. Giving Money" style="text;html=1;align=center;verticalAlign=middle;resizable=0;points=[];autosize=1;strokeColor=none;fillColor=none;" parent="1" vertex="1">
          <mxGeometry x="160" y="-430" width="120" height="30" as="geometry" />
        </mxCell>
        <mxCell id="fdN96rF7Gyq_IgbBHkpE-32" value="" style="endArrow=classic;html=1;rounded=0;" parent="1" edge="1">
          <mxGeometry width="50" height="50" relative="1" as="geometry">
            <mxPoint x="590" y="-490" as="sourcePoint" />
            <mxPoint x="470" y="-490" as="targetPoint" />
          </mxGeometry>
        </mxCell>
        <mxCell id="fdN96rF7Gyq_IgbBHkpE-33" value="" style="endArrow=classic;html=1;rounded=0;" parent="1" edge="1">
          <mxGeometry width="50" height="50" relative="1" as="geometry">
            <mxPoint x="310" y="-490" as="sourcePoint" />
            <mxPoint x="120" y="-490" as="targetPoint" />
          </mxGeometry>
        </mxCell>
        <mxCell id="fdN96rF7Gyq_IgbBHkpE-34" value="" style="endArrow=classic;html=1;rounded=0;" parent="1" edge="1">
          <mxGeometry width="50" height="50" relative="1" as="geometry">
            <mxPoint x="370" y="-250" as="sourcePoint" />
            <mxPoint x="370" y="-470" as="targetPoint" />
          </mxGeometry>
        </mxCell>
        <mxCell id="fdN96rF7Gyq_IgbBHkpE-35" value="" style="endArrow=classic;html=1;rounded=0;" parent="1" edge="1">
          <mxGeometry width="50" height="50" relative="1" as="geometry">
            <mxPoint x="390" y="-470" as="sourcePoint" />
            <mxPoint x="390" y="-250" as="targetPoint" />
          </mxGeometry>
        </mxCell>
        <mxCell id="fdN96rF7Gyq_IgbBHkpE-36" value="" style="endArrow=classic;html=1;rounded=0;" parent="1" edge="1">
          <mxGeometry width="50" height="50" relative="1" as="geometry">
            <mxPoint x="470" y="-510" as="sourcePoint" />
            <mxPoint x="590" y="-510" as="targetPoint" />
          </mxGeometry>
        </mxCell>
        <mxCell id="fdN96rF7Gyq_IgbBHkpE-37" value="" style="endArrow=classic;html=1;rounded=0;" parent="1" edge="1">
          <mxGeometry width="50" height="50" relative="1" as="geometry">
            <mxPoint x="120" y="-510" as="sourcePoint" />
            <mxPoint x="320" y="-510" as="targetPoint" />
          </mxGeometry>
        </mxCell>
      </root>
    </mxGraphModel>
  </diagram>
</mxfile>
